<svg width="125" height="29" viewBox="0 0 125 29" fill="none" xmlns="http://www.w3.org/2000/svg">
<path d="M7.62695 4.78125V19H4.70703V4.78125H7.62695ZM12.002 4.78125V7.07617H0.400391V4.78125H12.002ZM17.7148 16.6172V11.9102C17.7148 11.5716 17.6595 11.2819 17.5488 11.041C17.4382 10.7936 17.2656 10.6016 17.0312 10.4648C16.8034 10.3281 16.5072 10.2598 16.1426 10.2598C15.8301 10.2598 15.5599 10.3151 15.332 10.4258C15.1042 10.5299 14.9284 10.6829 14.8047 10.8848C14.681 11.0801 14.6191 11.3112 14.6191 11.5781H11.8066C11.8066 11.1289 11.9108 10.7025 12.1191 10.2988C12.3275 9.89518 12.6302 9.54036 13.0273 9.23438C13.4245 8.92188 13.8965 8.67773 14.4434 8.50195C14.9967 8.32617 15.6152 8.23828 16.2988 8.23828C17.1191 8.23828 17.8483 8.375 18.4863 8.64844C19.1243 8.92188 19.6257 9.33203 19.9902 9.87891C20.3613 10.4258 20.5469 11.1094 20.5469 11.9297V16.4512C20.5469 17.0306 20.5827 17.5059 20.6543 17.877C20.7259 18.2415 20.8301 18.5605 20.9668 18.834V19H18.125C17.9883 18.7135 17.8841 18.3555 17.8125 17.9258C17.7474 17.4896 17.7148 17.0534 17.7148 16.6172ZM18.0859 12.5645L18.1055 14.1562H16.5332C16.1621 14.1562 15.8398 14.1986 15.5664 14.2832C15.293 14.3678 15.0684 14.4883 14.8926 14.6445C14.7168 14.7943 14.5866 14.9701 14.502 15.1719C14.4238 15.3737 14.3848 15.5951 14.3848 15.8359C14.3848 16.0768 14.4401 16.2949 14.5508 16.4902C14.6615 16.679 14.821 16.8288 15.0293 16.9395C15.2376 17.0436 15.4818 17.0957 15.7617 17.0957C16.1849 17.0957 16.5527 17.0111 16.8652 16.8418C17.1777 16.6725 17.4186 16.4642 17.5879 16.2168C17.7637 15.9694 17.8548 15.735 17.8613 15.5137L18.6035 16.7051C18.4993 16.972 18.3561 17.2487 18.1738 17.5352C17.998 17.8216 17.7734 18.0918 17.5 18.3457C17.2266 18.5931 16.8978 18.7982 16.5137 18.9609C16.1296 19.1172 15.6738 19.1953 15.1465 19.1953C14.4759 19.1953 13.8672 19.0618 13.3203 18.7949C12.7799 18.5215 12.3503 18.1471 12.0312 17.6719C11.7188 17.1901 11.5625 16.6432 11.5625 16.0312C11.5625 15.4779 11.6667 14.9863 11.875 14.5566C12.0833 14.127 12.3893 13.7656 12.793 13.4727C13.2031 13.1732 13.7142 12.9486 14.3262 12.7988C14.9382 12.6426 15.6478 12.5645 16.4551 12.5645H18.0859ZM28.4277 16.0801C28.4277 15.8783 28.3691 15.696 28.252 15.5332C28.1348 15.3704 27.9167 15.2207 27.5977 15.084C27.2852 14.9408 26.8327 14.8105 26.2402 14.6934C25.7064 14.5762 25.2083 14.4297 24.7461 14.2539C24.2904 14.0716 23.8932 13.8535 23.5547 13.5996C23.2227 13.3457 22.9622 13.0462 22.7734 12.7012C22.5846 12.3496 22.4902 11.9492 22.4902 11.5C22.4902 11.0573 22.5846 10.6406 22.7734 10.25C22.9688 9.85938 23.2454 9.51432 23.6035 9.21484C23.9681 8.90885 24.4108 8.67122 24.9316 8.50195C25.459 8.32617 26.0514 8.23828 26.709 8.23828C27.627 8.23828 28.4147 8.38477 29.0723 8.67773C29.7363 8.9707 30.2441 9.37435 30.5957 9.88867C30.9538 10.3965 31.1328 10.9759 31.1328 11.627H28.3203C28.3203 11.3535 28.2617 11.1094 28.1445 10.8945C28.0339 10.6732 27.8581 10.5007 27.6172 10.377C27.3828 10.2467 27.0768 10.1816 26.6992 10.1816C26.3867 10.1816 26.1165 10.237 25.8887 10.3477C25.6608 10.4518 25.485 10.5951 25.3613 10.7773C25.2441 10.9531 25.1855 11.1484 25.1855 11.3633C25.1855 11.526 25.2181 11.6725 25.2832 11.8027C25.3548 11.9264 25.4688 12.0404 25.625 12.1445C25.7812 12.2487 25.9831 12.3464 26.2305 12.4375C26.4844 12.5221 26.7969 12.6003 27.168 12.6719C27.9297 12.8281 28.61 13.0332 29.209 13.2871C29.8079 13.5345 30.2832 13.873 30.6348 14.3027C30.9863 14.7259 31.1621 15.2826 31.1621 15.9727C31.1621 16.4414 31.0579 16.8711 30.8496 17.2617C30.6413 17.6523 30.3418 17.9941 29.9512 18.2871C29.5605 18.5736 29.0918 18.7982 28.5449 18.9609C28.0046 19.1172 27.3958 19.1953 26.7188 19.1953C25.7357 19.1953 24.9023 19.0195 24.2188 18.668C23.5417 18.3164 23.0273 17.8704 22.6758 17.3301C22.3307 16.7832 22.1582 16.2233 22.1582 15.6504H24.8242C24.8372 16.0345 24.9349 16.3438 25.1172 16.5781C25.306 16.8125 25.5436 16.9818 25.8301 17.0859C26.123 17.1901 26.4388 17.2422 26.7773 17.2422C27.1419 17.2422 27.4447 17.1934 27.6855 17.0957C27.9264 16.9915 28.1087 16.8548 28.2324 16.6855C28.3626 16.5098 28.4277 16.3079 28.4277 16.0801ZM35.8008 3.99023V19H32.9883V3.99023H35.8008ZM42.4609 8.43359L37.8711 13.668L35.4102 16.1582L34.3848 14.127L36.3379 11.6465L39.082 8.43359H42.4609ZM39.541 19L36.416 14.1172L38.3594 12.418L42.7832 19H39.541Z" fill="white"/>
<path d="M53.5117 13.7832H56.4316C56.373 14.7402 56.1094 15.5898 55.6406 16.332C55.1784 17.0742 54.5306 17.6536 53.6973 18.0703C52.8704 18.487 51.8743 18.6953 50.709 18.6953C49.7975 18.6953 48.9805 18.5391 48.2578 18.2266C47.5352 17.9076 46.9167 17.4518 46.4023 16.8594C45.8945 16.2669 45.5072 15.5508 45.2402 14.7109C44.9733 13.8711 44.8398 12.9303 44.8398 11.8887V10.9023C44.8398 9.86068 44.9766 8.91992 45.25 8.08008C45.5299 7.23372 45.9271 6.51432 46.4414 5.92188C46.9622 5.32943 47.584 4.8737 48.3066 4.55469C49.0293 4.23568 49.8366 4.07617 50.7285 4.07617C51.9134 4.07617 52.9128 4.29102 53.7266 4.7207C54.5469 5.15039 55.1816 5.74284 55.6309 6.49805C56.0866 7.25326 56.36 8.11263 56.4512 9.07617H53.5215C53.4889 8.50326 53.375 8.01823 53.1797 7.62109C52.9844 7.21745 52.6882 6.91471 52.291 6.71289C51.9004 6.50456 51.3796 6.40039 50.7285 6.40039C50.2402 6.40039 49.8138 6.49154 49.4492 6.67383C49.0846 6.85612 48.7786 7.13281 48.5312 7.50391C48.2839 7.875 48.0983 8.34375 47.9746 8.91016C47.8574 9.47005 47.7988 10.1276 47.7988 10.8828V11.8887C47.7988 12.6243 47.8542 13.2721 47.9648 13.832C48.0755 14.3854 48.2448 14.8542 48.4727 15.2383C48.707 15.6159 49.0065 15.9023 49.3711 16.0977C49.7422 16.2865 50.1882 16.3809 50.709 16.3809C51.321 16.3809 51.8255 16.2832 52.2227 16.0879C52.6198 15.8926 52.9225 15.6029 53.1309 15.2188C53.3457 14.8346 53.4727 14.3561 53.5117 13.7832ZM60.9922 10.2383V18.5H58.1797V7.93359H60.8262L60.9922 10.2383ZM64.1758 7.86523L64.127 10.4727C63.9902 10.4531 63.8242 10.4368 63.6289 10.4238C63.4401 10.4043 63.2676 10.3945 63.1113 10.3945C62.7142 10.3945 62.3691 10.4466 62.0762 10.5508C61.7897 10.6484 61.5488 10.7949 61.3535 10.9902C61.1647 11.1855 61.0215 11.4232 60.9238 11.7031C60.8327 11.9831 60.7806 12.3021 60.7676 12.6602L60.2012 12.4844C60.2012 11.8008 60.2695 11.1725 60.4062 10.5996C60.543 10.0202 60.7415 9.51562 61.002 9.08594C61.2689 8.65625 61.5944 8.32422 61.9785 8.08984C62.3626 7.85547 62.8021 7.73828 63.2969 7.73828C63.4531 7.73828 63.6126 7.7513 63.7754 7.77734C63.9382 7.79688 64.0716 7.82617 64.1758 7.86523ZM70.1719 18.6953C69.3516 18.6953 68.6159 18.5651 67.9648 18.3047C67.3138 18.0378 66.7604 17.6699 66.3047 17.2012C65.8555 16.7324 65.5104 16.1888 65.2695 15.5703C65.0286 14.9453 64.9082 14.2812 64.9082 13.5781V13.1875C64.9082 12.3867 65.0221 11.6543 65.25 10.9902C65.4779 10.3262 65.8034 9.75 66.2266 9.26172C66.6562 8.77344 67.1771 8.39909 67.7891 8.13867C68.401 7.87174 69.0911 7.73828 69.8594 7.73828C70.6081 7.73828 71.2721 7.86198 71.8516 8.10938C72.431 8.35677 72.916 8.70833 73.3066 9.16406C73.7038 9.61979 74.0033 10.1667 74.2051 10.8047C74.4069 11.4362 74.5078 12.1393 74.5078 12.9141V14.0859H66.1094V12.2109H71.7441V11.9961C71.7441 11.6055 71.6725 11.2572 71.5293 10.9512C71.3926 10.6387 71.1842 10.3913 70.9043 10.209C70.6243 10.0267 70.2663 9.93555 69.8301 9.93555C69.459 9.93555 69.14 10.0169 68.873 10.1797C68.6061 10.3424 68.388 10.5703 68.2188 10.8633C68.056 11.1562 67.9323 11.5013 67.8477 11.8984C67.7695 12.2891 67.7305 12.7188 67.7305 13.1875V13.5781C67.7305 14.0013 67.7891 14.3919 67.9062 14.75C68.0299 15.1081 68.2025 15.4173 68.4238 15.6777C68.6517 15.9382 68.9251 16.14 69.2441 16.2832C69.5697 16.4264 69.9375 16.498 70.3477 16.498C70.8555 16.498 71.3275 16.4004 71.7637 16.2051C72.2064 16.0033 72.5872 15.7005 72.9062 15.2969L74.2734 16.7812C74.0521 17.1003 73.7493 17.4062 73.3652 17.6992C72.9876 17.9922 72.5319 18.2331 71.998 18.4219C71.4642 18.6042 70.8555 18.6953 70.1719 18.6953ZM81.8125 16.1172V11.4102C81.8125 11.0716 81.7572 10.7819 81.6465 10.541C81.5358 10.2936 81.3633 10.1016 81.1289 9.96484C80.901 9.82812 80.6048 9.75977 80.2402 9.75977C79.9277 9.75977 79.6576 9.8151 79.4297 9.92578C79.2018 10.0299 79.026 10.1829 78.9023 10.3848C78.7786 10.5801 78.7168 10.8112 78.7168 11.0781H75.9043C75.9043 10.6289 76.0085 10.2025 76.2168 9.79883C76.4251 9.39518 76.7279 9.04036 77.125 8.73438C77.5221 8.42188 77.9941 8.17773 78.541 8.00195C79.0944 7.82617 79.7129 7.73828 80.3965 7.73828C81.2168 7.73828 81.946 7.875 82.584 8.14844C83.222 8.42188 83.7233 8.83203 84.0879 9.37891C84.459 9.92578 84.6445 10.6094 84.6445 11.4297V15.9512C84.6445 16.5306 84.6803 17.0059 84.752 17.377C84.8236 17.7415 84.9277 18.0605 85.0645 18.334V18.5H82.2227C82.0859 18.2135 81.9818 17.8555 81.9102 17.4258C81.8451 16.9896 81.8125 16.5534 81.8125 16.1172ZM82.1836 12.0645L82.2031 13.6562H80.6309C80.2598 13.6562 79.9375 13.6986 79.6641 13.7832C79.3906 13.8678 79.166 13.9883 78.9902 14.1445C78.8145 14.2943 78.6842 14.4701 78.5996 14.6719C78.5215 14.8737 78.4824 15.0951 78.4824 15.3359C78.4824 15.5768 78.5378 15.7949 78.6484 15.9902C78.7591 16.179 78.9186 16.3288 79.127 16.4395C79.3353 16.5436 79.5794 16.5957 79.8594 16.5957C80.2826 16.5957 80.6504 16.5111 80.9629 16.3418C81.2754 16.1725 81.5163 15.9642 81.6855 15.7168C81.8613 15.4694 81.9525 15.235 81.959 15.0137L82.7012 16.2051C82.597 16.472 82.4538 16.7487 82.2715 17.0352C82.0957 17.3216 81.8711 17.5918 81.5977 17.8457C81.3242 18.0931 80.9954 18.2982 80.6113 18.4609C80.2272 18.6172 79.7715 18.6953 79.2441 18.6953C78.5736 18.6953 77.9648 18.5618 77.418 18.2949C76.8776 18.0215 76.4479 17.6471 76.1289 17.1719C75.8164 16.6901 75.6602 16.1432 75.6602 15.5312C75.6602 14.9779 75.7643 14.4863 75.9727 14.0566C76.181 13.627 76.487 13.2656 76.8906 12.9727C77.3008 12.6732 77.8118 12.4486 78.4238 12.2988C79.0358 12.1426 79.7454 12.0645 80.5527 12.0645H82.1836ZM91.9883 7.93359V9.92578H85.8359V7.93359H91.9883ZM87.3594 5.32617H90.1719V15.3164C90.1719 15.6224 90.2109 15.8568 90.2891 16.0195C90.3737 16.1823 90.4974 16.2962 90.6602 16.3613C90.8229 16.4199 91.028 16.4492 91.2754 16.4492C91.4512 16.4492 91.6074 16.4427 91.7441 16.4297C91.8874 16.4102 92.0078 16.3906 92.1055 16.3711L92.1152 18.4414C91.8743 18.5195 91.6139 18.5814 91.334 18.627C91.054 18.6725 90.7448 18.6953 90.4062 18.6953C89.7878 18.6953 89.2474 18.5944 88.7852 18.3926C88.3294 18.1842 87.9779 17.8522 87.7305 17.3965C87.4831 16.9408 87.3594 16.3418 87.3594 15.5996V5.32617ZM98.4531 18.6953C97.6328 18.6953 96.8971 18.5651 96.2461 18.3047C95.5951 18.0378 95.0417 17.6699 94.5859 17.2012C94.1367 16.7324 93.7917 16.1888 93.5508 15.5703C93.3099 14.9453 93.1895 14.2812 93.1895 13.5781V13.1875C93.1895 12.3867 93.3034 11.6543 93.5312 10.9902C93.7591 10.3262 94.0846 9.75 94.5078 9.26172C94.9375 8.77344 95.4583 8.39909 96.0703 8.13867C96.6823 7.87174 97.3724 7.73828 98.1406 7.73828C98.8893 7.73828 99.5534 7.86198 100.133 8.10938C100.712 8.35677 101.197 8.70833 101.588 9.16406C101.985 9.61979 102.285 10.1667 102.486 10.8047C102.688 11.4362 102.789 12.1393 102.789 12.9141V14.0859H94.3906V12.2109H100.025V11.9961C100.025 11.6055 99.9538 11.2572 99.8105 10.9512C99.6738 10.6387 99.4655 10.3913 99.1855 10.209C98.9056 10.0267 98.5475 9.93555 98.1113 9.93555C97.7402 9.93555 97.4212 10.0169 97.1543 10.1797C96.8874 10.3424 96.6693 10.5703 96.5 10.8633C96.3372 11.1562 96.2135 11.5013 96.1289 11.8984C96.0508 12.2891 96.0117 12.7188 96.0117 13.1875V13.5781C96.0117 14.0013 96.0703 14.3919 96.1875 14.75C96.3112 15.1081 96.4837 15.4173 96.7051 15.6777C96.9329 15.9382 97.2064 16.14 97.5254 16.2832C97.8509 16.4264 98.2188 16.498 98.6289 16.498C99.1367 16.498 99.6087 16.4004 100.045 16.2051C100.488 16.0033 100.868 15.7005 101.188 15.2969L102.555 16.7812C102.333 17.1003 102.031 17.4062 101.646 17.6992C101.269 17.9922 100.813 18.2331 100.279 18.4219C99.7454 18.6042 99.1367 18.6953 98.4531 18.6953Z" fill="#6EC7FB"/>
</svg>
